<svg width="200" height="75.977" viewBox="0 0 200 75.977" xmlns="http://www.w3.org/2000/svg"><g id="svgGroup" stroke-linecap="round" fill-rule="evenodd" font-size="9pt" stroke="#000" stroke-width="1mm" fill="none" style="stroke:#000;stroke-width:0.25mm;fill:none"><path d="M 186.279 75 L 170.605 52.344 L 165.332 57.764 L 165.332 75 L 153.467 75 L 153.467 0 L 165.332 0 L 165.332 43.262 L 169.043 38.623 L 183.643 22.168 L 197.9 22.168 L 178.271 44.189 L 200 75 L 186.279 75 Z M 107.861 75 L 95.752 75 Q 95.108 73.752 94.596 71.209 A 40.514 40.514 0 0 1 94.385 70.068 A 18.423 18.423 0 0 1 81.028 75.971 A 22.455 22.455 0 0 1 80.518 75.977 A 22.778 22.778 0 0 1 74.64 75.256 A 16.956 16.956 0 0 1 67.529 71.436 A 15.096 15.096 0 0 1 63.614 66.027 A 14.978 14.978 0 0 1 62.5 60.205 A 18.076 18.076 0 0 1 63.346 54.532 A 14.345 14.345 0 0 1 68.774 47.241 Q 75.049 42.725 86.719 42.725 L 93.994 42.725 L 93.994 39.258 Q 93.994 35.156 91.699 32.69 A 7.165 7.165 0 0 0 88.641 30.785 Q 87.479 30.4 86.06 30.279 A 15.907 15.907 0 0 0 84.717 30.225 A 13.271 13.271 0 0 0 81.788 30.531 A 9.232 9.232 0 0 0 78.076 32.251 A 7.054 7.054 0 0 0 76.377 34.117 A 6.173 6.173 0 0 0 75.488 37.402 L 63.623 37.402 A 12.876 12.876 0 0 1 65.809 30.257 A 16.331 16.331 0 0 1 66.504 29.272 A 18.192 18.192 0 0 1 71.854 24.597 A 22.974 22.974 0 0 1 74.341 23.34 A 26.106 26.106 0 0 1 82.058 21.361 A 32.142 32.142 0 0 1 85.4 21.191 A 29.922 29.922 0 0 1 91.552 21.787 Q 95.375 22.59 98.326 24.477 A 17.484 17.484 0 0 1 100.195 25.854 A 15.565 15.565 0 0 1 105.496 35.213 A 22.671 22.671 0 0 1 105.859 38.965 L 105.859 62.793 A 41.459 41.459 0 0 0 106.075 67.161 Q 106.306 69.336 106.785 71.154 A 17.54 17.54 0 0 0 107.861 74.17 L 107.861 75 Z M 20.459 75 L 0 75 L 0 3.906 L 20.996 3.906 A 36.122 36.122 0 0 1 30.409 5.091 A 30.453 30.453 0 0 1 37.72 8.105 A 28.632 28.632 0 0 1 49.023 20.02 A 35.521 35.521 0 0 1 52.674 31.979 A 45.041 45.041 0 0 1 53.027 37.695 L 53.027 41.26 A 42.994 42.994 0 0 1 52.051 50.618 A 33.779 33.779 0 0 1 48.999 59.033 A 28.288 28.288 0 0 1 37.524 70.85 Q 30.078 75 20.459 75 Z M 145.996 21.875 L 145.947 33.008 Q 143.604 32.617 141.113 32.617 A 16.323 16.323 0 0 0 136.954 33.11 A 9.921 9.921 0 0 0 130.127 38.867 L 130.127 75 L 118.262 75 L 118.262 22.168 L 129.59 22.168 L 129.883 28.076 Q 134.174 21.2 141.778 21.191 A 17.013 17.013 0 0 1 141.797 21.191 Q 143.727 21.191 145.149 21.586 A 7.481 7.481 0 0 1 145.996 21.875 Z M 20.996 13.867 L 12.354 13.867 L 12.354 65.137 L 20.41 65.137 A 24.789 24.789 0 0 0 26.525 64.427 A 16.673 16.673 0 0 0 35.327 59.058 Q 39.556 54.114 40.411 45.666 A 44.193 44.193 0 0 0 40.625 41.602 L 40.625 37.646 A 42.657 42.657 0 0 0 40.134 30.948 Q 39.053 24.167 35.596 19.971 A 16.261 16.261 0 0 0 26.02 14.35 A 24.776 24.776 0 0 0 20.996 13.867 Z M 93.994 60.156 L 93.994 50.195 L 87.598 50.195 A 30.591 30.591 0 0 0 84.149 50.377 Q 80.296 50.815 77.953 52.313 A 8.876 8.876 0 0 0 77.686 52.49 A 7.285 7.285 0 0 0 74.446 57.719 A 9.599 9.599 0 0 0 74.365 58.984 A 8.304 8.304 0 0 0 74.712 61.442 A 6.506 6.506 0 0 0 76.636 64.429 A 7.71 7.71 0 0 0 80.049 66.164 Q 81.195 66.437 82.535 66.454 A 14.113 14.113 0 0 0 82.715 66.455 A 13.497 13.497 0 0 0 89.331 64.746 Q 92.432 63.037 93.994 60.156 Z" vector-effect="non-scaling-stroke"/></g></svg>