<svg width="223.975" height="72.072" viewBox="0 0 223.975 72.072" xmlns="http://www.w3.org/2000/svg"><g id="svgGroup" stroke-linecap="round" fill-rule="evenodd" font-size="9pt" stroke="#000" stroke-width="0.25mm" fill="#000" style="stroke:#000;stroke-width:0.25mm;fill:none"><path d="M 56.396 0 L 56.396 71.094 L 44.043 71.094 L 12.354 20.654 L 12.354 71.094 L 0 71.094 L 0 0 L 12.354 0 L 44.141 50.635 L 44.141 0 L 56.396 0 Z M 180.273 18.262 L 191.455 18.262 L 191.797 24.365 A 18.764 18.764 0 0 1 205.425 17.347 A 24.301 24.301 0 0 1 207.178 17.285 A 20.551 20.551 0 0 1 214.221 18.394 Q 223.753 21.862 223.975 36.182 L 223.975 71.094 L 212.109 71.094 L 212.109 36.865 A 18.489 18.489 0 0 0 211.923 34.143 Q 211.473 31.128 209.937 29.419 A 6.501 6.501 0 0 0 207.347 27.704 Q 205.49 27.002 202.832 27.002 A 12.422 12.422 0 0 0 197.873 27.954 Q 194.978 29.2 193.003 32.078 A 15.784 15.784 0 0 0 192.139 33.496 L 192.139 71.094 L 180.273 71.094 L 180.273 18.262 Z M 67.822 46.045 L 67.822 44.58 A 35.138 35.138 0 0 1 68.684 36.651 A 28.761 28.761 0 0 1 70.874 30.444 A 24.03 24.03 0 0 1 76.088 23.324 A 22.547 22.547 0 0 1 79.443 20.752 A 22.655 22.655 0 0 1 91.748 17.285 A 27.141 27.141 0 0 1 98.587 18.099 A 18.839 18.839 0 0 1 108.423 24.17 Q 113.37 29.959 114.158 39.786 A 48.424 48.424 0 0 1 114.307 43.652 L 114.307 48.438 L 79.785 48.438 A 20.067 20.067 0 0 0 80.679 53.046 A 14.162 14.162 0 0 0 84.155 58.789 A 12.964 12.964 0 0 0 93.036 62.581 A 17.149 17.149 0 0 0 93.799 62.598 A 15.867 15.867 0 0 0 105.88 57.415 A 20.296 20.296 0 0 0 107.08 56.006 L 113.477 62.109 Q 110.303 66.846 105.005 69.458 Q 99.707 72.07 93.115 72.07 A 29.112 29.112 0 0 1 84.656 70.898 A 22.906 22.906 0 0 1 74.829 64.966 A 23.847 23.847 0 0 1 68.346 52.155 A 34.105 34.105 0 0 1 67.822 46.045 Z M 121.289 44.775 L 121.289 44.189 A 33.799 33.799 0 0 1 122.262 35.942 A 28.661 28.661 0 0 1 124.365 30.2 A 23.459 23.459 0 0 1 129.256 23.475 A 21.699 21.699 0 0 1 133.008 20.63 A 23.484 23.484 0 0 1 142.933 17.423 A 29.207 29.207 0 0 1 145.801 17.285 A 27.079 27.079 0 0 1 153.824 18.421 A 21.726 21.726 0 0 1 163.159 24.17 A 24.918 24.918 0 0 1 169.502 36.072 A 35.053 35.053 0 0 1 170.361 42.432 L 170.41 45.215 A 34.842 34.842 0 0 1 169.563 53.047 A 28.508 28.508 0 0 1 167.407 59.18 Q 164.404 65.332 158.813 68.701 A 23.518 23.518 0 0 1 149.074 71.903 A 29.532 29.532 0 0 1 145.898 72.07 A 27.135 27.135 0 0 1 137.697 70.888 A 21.601 21.601 0 0 1 128.003 64.624 A 25.308 25.308 0 0 1 122.159 53.06 A 37.314 37.314 0 0 1 121.289 44.775 Z M 133.154 45.215 A 31.886 31.886 0 0 0 133.517 50.185 Q 133.933 52.819 134.828 54.95 A 14.884 14.884 0 0 0 136.523 57.983 A 10.725 10.725 0 0 0 144.261 62.506 A 14.306 14.306 0 0 0 145.898 62.598 A 12.307 12.307 0 0 0 150.184 61.882 Q 153.211 60.767 155.249 57.91 A 15.512 15.512 0 0 0 157.352 53.585 Q 158.012 51.518 158.321 48.995 A 39.589 39.589 0 0 0 158.594 44.189 A 30.182 30.182 0 0 0 158.192 39.103 Q 157.72 36.347 156.694 34.124 A 15.16 15.16 0 0 0 155.151 31.494 A 11.396 11.396 0 0 0 151.274 28.072 Q 149.058 26.905 146.276 26.814 A 14.525 14.525 0 0 0 145.801 26.807 Q 139.99 26.807 136.572 31.421 A 14.897 14.897 0 0 0 134.44 35.673 Q 133.154 39.585 133.154 45.215 Z M 79.98 39.746 L 102.588 39.746 L 102.588 38.867 Q 102.324 34.838 100.965 32.138 A 10.089 10.089 0 0 0 99.414 29.858 A 9.128 9.128 0 0 0 94.236 27.035 A 13.439 13.439 0 0 0 91.699 26.807 A 11.314 11.314 0 0 0 87.914 27.415 A 9.682 9.682 0 0 0 83.813 30.225 Q 80.811 33.643 79.98 39.746 Z" vector-effect="non-scaling-stroke"/></g></svg>
